<svg xmlns="http://www.w3.org/2000/svg" version="1.1" xmlns:xlink="http://www.w3.org/1999/xlink" xmlns:svgjs="http://svgjs.com/svgjs" width="100%" height="100%" viewBox="0 0 1000 600"><rect width="1000" height="600" x="0" y="0" fill="#6bb5ff"/><g><circle r="166.66666666666666" cx="415.1414133707682" cy="437.3636363489044" fill="#E2V144" transform="matrix(0.5030692217189984,0,0,0.5030692217189984,0,79.97581073628089)"/><path d="M363.7916592240594 511.9528322829258L346.684852631439 504.96926458302244L404.5780420092091 362.36363844213923L426.5557403589049 362.36363844213923L483.5979908152582 504.96926458302244L465.2001044797986 512.3636303829201L448.7388377585978 470.1101115263621L380.28226866668825 470.1101115263621L363.7916592240594 511.9528322829258ZM414.49588185192897 382.22866084900716L386.62029649517194 453.2087039837389L442.1660681586888 453.2087039837389L414.49588185192897 382.22866084900716Z " fill="#6bb5ff" transform="matrix(0.5030692217189984,0,0,0.5030692217189984,0,79.97581073628089)"/><path d="M681.4021105599152 511.582680409622L665.1414184838743 504.9445248108266L720.1711705696866 369.3922718270211L741.061836718837 369.3922718270211L795.2827379123592 504.9445248108266L777.7948237928435 511.9731601507276L762.14774273854 471.8095296370075L697.0770830242976 471.8095296370075L681.4021105599152 511.582680409622ZM729.5984671763792 388.27475645048537L703.1016276013556 455.74407743151943L755.9000668808502 455.74407743151943L729.5984671763792 388.27475645048537ZM830.8163943529698 405.53953928936926L830.8163943529698 422.9995619988059Q836.4504591889222 414.5763561549563 845.1804705436406 408.85861708876695Q853.910481898359 403.1408780225776 865.959571052475 403.1408780225776L865.959571052475 403.1408780225776Q883.6427250425435 403.1408780225776 892.3727363972617 413.7675052626661Q901.1027477519801 424.4220239128335 901.1027477519801 441.88204662227014L901.1027477519801 441.88204662227014L901.1027477519801 509.9649786250416L883.029114020806 509.9649786250416L883.029114020806 443.8902281479562Q883.029114020806 432.45475001557753 877.8134203360382 425.7329201865452Q872.5977266512704 418.9831989474339 862.947298763946 418.9831989474339L862.947298763946 418.9831989474339Q858.3173246908366 418.9831989474339 853.910481898359 420.7124663723302Q849.5036391058813 422.4138423871475 845.3757104141935 425.4261146756765Q841.2477817225056 428.4383869642055 837.733464052555 432.45475001557753Q834.2191463826045 436.47111306694956 831.4300053747072 440.8779558594272L831.4300053747072 440.8779558594272L831.4300053747072 509.9649786250416L813.3563716435332 509.9649786250416L813.3563716435332 405.53953928936926L830.8163943529698 405.53953928936926ZM936.6364041925908 409.36066247018846L940.4575273734101 376.4209071669221L954.3195581826593 376.4209071669221L954.3195581826593 409.36066247018846L983.2429504345536 409.36066247018846L983.2429504345536 425.0077435244919L954.3195581826593 425.0077435244919L954.3195581826593 475.43541294727385Q954.3195581826593 481.23682624370014 955.6304544563709 485.2531892950721Q956.9413507300827 489.26955234644413 959.1447721263214 491.6961050233147Q961.3481935225603 494.09476629010635 964.4720314514052 495.21042269326523Q967.5679779701711 496.29818768634516 970.9986214098847 496.29818768634516L970.9986214098847 496.29818768634516Q976.0190752240998 496.29818768634516 980.4259180165774 494.7083773118438Q984.832760809055 493.0906755272634 988.849123860427 490.8872541310245L988.849123860427 490.8872541310245L993.869577674642 505.33500455193223Q989.85321462327 507.7615572288028 983.0477105640008 510.07654426535754Q976.2143150946525 512.3636398918331 968.767308603567 512.3636398918331L968.767308603567 512.3636398918331Q953.7059471609219 512.3636398918331 944.9759358062036 502.545863544035Q936.2459244514853 492.70019578615774 936.2459244514853 474.0129510332463L936.2459244514853 474.0129510332463L936.2459244514853 425.0077435244919L918.1722907203111 425.0077435244919L918.1722907203111 409.36066247018846L936.6364041925908 409.36066247018846ZM1085.4649683739872 457.7522589572054L1085.4649683739872 457.7522589572054Q1085.4649683739872 449.9147727250142 1082.9547414668796 442.88613738511316Q1080.444514559772 435.85750204521213 1075.9261061269785 430.6418083604443Q1071.4076976941851 425.4261146756765 1065.2715874768112 422.3022767468316Q1059.1354772594373 419.20633022806567 1051.9116020489835 419.20633022806567L1051.9116020489835 419.20633022806567Q1036.0413897140481 419.20633022806567 1027.227704129093 429.63771759760135Q1018.3861271340587 440.069104967137 1018.3861271340587 457.3617792160998L1018.3861271340587 457.3617792160998Q1018.3861271340587 465.17137403821204 1020.8963540411662 472.311575018429Q1023.4065809482737 479.45177599864587 1027.9249893810672 484.75114391365065Q1032.4433978138609 490.0784032387343 1038.5516166211557 493.20224116757925Q1044.6877268385297 496.29818768634516 1051.9116020489835 496.29818768634516L1051.9116020489835 496.29818768634516Q1059.7490882811746 496.29818768634516 1065.9688727287855 493.50904667844793Q1072.1886571763962 490.69201426047175 1076.511825738637 485.55999480594085Q1080.8349943008777 480.4558667614889 1083.1499813374326 473.42723142158786Q1085.4649683739872 466.39859608168683 1085.4649683739872 457.7522589572054ZM999.8941222517001 457.7522589572054L999.8941222517001 457.7522589572054Q999.8941222517001 445.08955878135197 1003.9104853030722 434.964976922685Q1007.926848354444 424.81250365393913 1014.8718094641082 417.7838683140381Q1021.7888791636933 410.7552329741371 1031.327741410702 406.9341097933179Q1040.8666036577104 403.1408780225776 1051.9116020489835 403.1408780225776L1051.9116020489835 403.1408780225776Q1062.7613605697038 403.1408780225776 1072.3002228167122 406.9341097933179Q1081.8390850637206 410.7552329741371 1088.8677204036217 417.7838683140381Q1095.8963557435227 424.81250365393913 1099.9127187948948 434.85341128236917Q1103.9290818462669 444.8943189107992 1103.9290818462669 457.3617792160998L1103.9290818462669 457.3617792160998Q1103.9290818462669 469.8013481113215 1100.0242844352106 479.9538213800674Q1096.0915956140757 490.0784032387343 1089.0629602741747 497.3022784491882Q1082.0343249342736 504.554045069721 1072.495462687265 508.4588424807771Q1062.9566004402564 512.3636398918331 1051.9116020489835 512.3636398918331L1051.9116020489835 512.3636398918331Q1040.6713637871576 512.3636398918331 1031.132501540149 508.34727684046123Q1021.5936392931405 504.33091378908915 1014.6765695935554 497.10703857863535Q1007.7316084838913 489.88316336818156 1003.8268110728352 479.8422557397515Q999.8941222517001 469.8013481113215 999.8941222517001 457.7522589572054ZM1145.4872828639354 405.53953928936926L1145.4872828639354 422.9995619988059Q1151.121347699888 414.5763561549563 1159.8513590546063 408.85861708876695Q1168.5813704093248 403.1408780225776 1180.6304595634406 403.1408780225776L1180.6304595634406 403.1408780225776Q1198.3136135535092 403.1408780225776 1207.0436249082275 413.7675052626661Q1215.7736362629457 424.4220239128335 1215.7736362629457 441.88204662227014L1215.7736362629457 441.88204662227014L1215.7736362629457 509.9649786250416L1197.7000025317718 509.9649786250416L1197.7000025317718 443.8902281479562Q1197.7000025317718 432.45475001557753 1192.4843088470038 425.7329201865452Q1187.268615162236 418.9831989474339 1177.6181872749116 418.9831989474339L1177.6181872749116 418.9831989474339Q1173.0161046118812 418.9831989474339 1168.5813704093248 420.7124663723302Q1164.174527616847 422.4138423871475 1160.046598925159 425.4261146756765Q1155.9465616435502 428.4383869642055 1152.4322439735997 432.45475001557753Q1148.917926303649 436.47111306694956 1146.100893885673 440.8779558594272L1146.100893885673 440.8779558594272L1146.100893885673 509.9649786250416L1128.027260154499 509.9649786250416L1128.027260154499 405.53953928936926L1145.4872828639354 405.53953928936926ZM1264.974083642253 405.53953928936926L1264.974083642253 509.9649786250416L1246.9004499110788 509.9649786250416L1246.9004499110788 405.53953928936926L1264.974083642253 405.53953928936926ZM1255.937266776666 387.661145428748L1255.937266776666 387.661145428748Q1250.721573091898 387.661145428748 1247.0120155513948 383.95158788824466Q1243.3024580108913 380.2420303477413 1243.3024580108913 375.0263366629735L1243.3024580108913 375.0263366629735Q1243.3024580108913 369.1970319564683 1246.705210040526 365.7663885167547Q1250.1358534802398 362.36363648712006 1255.937266776666 362.36363648712006L1255.937266776666 362.36363648712006Q1261.1808518715127 362.36363648712006 1264.8904094120162 366.0731940276234Q1268.5999669525195 369.78275156812674 1268.5999669525195 375.0263366629735L1268.5999669525195 375.0263366629735Q1268.5999669525195 380.82774995939974 1265.1972149228848 384.25839339911334Q1261.7665714831712 387.661145428748 1255.937266776666 387.661145428748ZM1374.643108072772 457.7522589572054L1374.643108072772 457.7522589572054Q1374.643108072772 449.9147727250142 1372.1328811656647 442.88613738511316Q1369.622654258557 435.85750204521213 1365.1042458257637 430.6418083604443Q1360.5858373929702 425.4261146756765 1354.449727175596 422.3022767468316Q1348.3136169582224 419.20633022806567 1341.0897417477684 419.20633022806567L1341.0897417477684 419.20633022806567Q1325.219529412833 419.20633022806567 1316.4058438278778 429.63771759760135Q1307.5642668328437 440.069104967137 1307.5642668328437 457.3617792160998L1307.5642668328437 457.3617792160998Q1307.5642668328437 465.17137403821204 1310.074493739951 472.311575018429Q1312.5847206470587 479.45177599864587 1317.1031290798521 484.75114391365065Q1321.6215375126458 490.0784032387343 1327.7297563199406 493.20224116757925Q1333.8658665373146 496.29818768634516 1341.0897417477684 496.29818768634516L1341.0897417477684 496.29818768634516Q1348.9272279799595 496.29818768634516 1355.1470124275704 493.50904667844793Q1361.3667968751813 490.69201426047175 1365.689965437422 485.55999480594085Q1370.0131339996626 480.4558667614889 1372.3281210362175 473.42723142158786Q1374.643108072772 466.39859608168683 1374.643108072772 457.7522589572054ZM1289.072261950485 457.7522589572054L1289.072261950485 457.7522589572054Q1289.072261950485 445.08955878135197 1293.0886250018573 434.964976922685Q1297.1049880532291 424.81250365393913 1304.0499491628932 417.7838683140381Q1310.9670188624784 410.7552329741371 1320.5058811094868 406.9341097933179Q1330.0447433564955 403.1408780225776 1341.0897417477684 403.1408780225776L1341.0897417477684 403.1408780225776Q1351.9395002684887 403.1408780225776 1361.478362515497 406.9341097933179Q1371.0172247625057 410.7552329741371 1378.0458601024068 417.7838683140381Q1385.0744954423076 424.81250365393913 1389.0908584936797 434.85341128236917Q1393.107221545052 444.8943189107992 1393.107221545052 457.3617792160998L1393.107221545052 457.3617792160998Q1393.107221545052 469.8013481113215 1389.2024241339957 479.9538213800674Q1385.2697353128606 490.0784032387343 1378.2410999729595 497.3022784491882Q1371.2124646330585 504.554045069721 1361.6736023860499 508.4588424807771Q1352.1347401390415 512.3636398918331 1341.0897417477684 512.3636398918331L1341.0897417477684 512.3636398918331Q1329.8495034859427 512.3636398918331 1320.310641238934 508.34727684046123Q1310.7717789919254 504.33091378908915 1303.8547092923404 497.10703857863535Q1296.9097481826764 489.88316336818156 1293.00495077162 479.8422557397515Q1289.072261950485 469.8013481113215 1289.072261950485 457.7522589572054ZM1514.9926835901608 509.9649786250416L1463.3935749440623 374.41272564123614L1482.0808196969735 367.1888504307823L1526.2608132620655 489.07431247589136L1570.6360466977105 367.7745700424407L1587.9008295365945 374.41272564123614L1536.4969607610485 509.9649786250416L1514.9926835901608 509.9649786250416ZM1720.245570361318 509.9649786250416L1720.245570361318 393.685690005806L1682.6758409849424 478.2245539551711L1663.8212477715572 478.2245539551711L1626.0562785246286 393.685690005806L1626.0562785246286 509.9649786250416L1607.9826447934545 509.9649786250416L1607.9826447934545 369.3922718270211L1634.70261564911 369.3922718270211L1673.6390241193556 458.36586997894284L1712.0176043880213 369.3922718270211L1739.3232948553352 369.3922718270211L1739.3232948553352 509.9649786250416L1720.245570361318 509.9649786250416Z " fill="#" transform="matrix(0.5030692217189984,0,0,0.5030692217189984,0,79.97581073628089)"/></g></svg>